<svg xmlns="http://www.w3.org/2000/svg" viewBox="0 0 2004 1563" xml:space="preserve">
  <path fill="#96CBE7" d="M1463.106 247.725c-.766-3.203-1.188-6.538-2.354-9.588-8.458-22.145-13.29-45.035-11.495-68.704 1.021-13.459 3.818-26.89 6.979-40.056 5.456-22.728 15.348-43.515 30.31-61.658 13.245-16.06 28.734-29.554 47.064-39.532 22.899-12.466 47.01-21.66 72.87-25.815 2.937-.472 5.932-.578 9.21-1.113 7.664-.259 15.018-.259 23.143.013 4.882.754 9.017 1.098 13.104 1.744 18.967 3 37.647 7.642 54.787 16.18 29.923 14.904 52.927 37.628 70.098 66.309 8.002 13.365 13.874 27.6 18.172 42.92 5.91 23.107 8.875 46.066 6.141 69.561-4.86 41.771-22.701 77.134-52.614 106.47-20.28 19.89-44.937 32.299-71.678 40.915-52.728 16.99-102.522 10.561-148.592-20.15-28.104-18.734-49.928-43.292-63.101-74.883-.41-.984-1.35-1.747-2.044-2.613z"/>
  <path fill="#00FF00" d="M1218.45 1564c-7.049-1.104-13.622-2.404-20.25-3.279-41.95-5.539-76.553-24.753-107.568-53.337-29.539-27.224-43.059-60.626-47.504-99.216-6.783-58.877 12.95-108.445 54.594-148.982 41.13-40.036 91.128-54.926 148.103-46.2 59.992 9.188 103.194 41.876 130.405 95.13 13.902 27.209 18.026 57.266 16.232 87.892-1.126 19.22-5.422 37.783-11.267 56.092-5.506 17.245-16.023 31.373-27.531 44.716-31.344 36.343-71.472 57.237-118.398 65.659-2.608.468-5.293.506-8.105 1.135-2.861.39-5.561.39-8.711.39z"/>
  <path fill="#00FF00" d="M1 1230.417c1.077-2.878 2.52-5.248 3.165-7.817 2.075-8.271 8.191-13.381 14.24-18.425 11.709-9.765 26.555-12.79 40.369-17.828 95.749-34.924 191.596-69.579 287.4-104.348 74.203-26.93 148.39-53.9 222.585-80.85 19.097-6.937 38.161-13.963 57.314-20.74 7.221-2.555 14.697-2.11 22.348-1.967 7.92.148 14.168 3.369 19.875 7.32 6.945 4.81 11.316 12.363 14.357 20.286 5.962 15.534 1.401 29.62-7.624 42.283-3.026 4.246-8.751 6.57-13.648 9.454-.423-.521-.44-.725-.235-1.183 6.687-4.994 12.638-10.215 16.266-17.579 4.86-9.867 7.23-19.916 2.382-30.565-1.093-2.402-1.953-4.918-2.8-7.423-2.654-7.859-8.875-12.414-15.717-15.87-8.851-4.471-18.336-5.821-28.511-3.018-2.657.399-4.991.677-7.145 1.456-45.17 16.346-90.324 32.737-135.473 49.143-46.882 17.036-93.751 34.107-140.632 51.146a287631.063 287631.063 0 0 1-156.66 56.901c-49.882 18.098-99.794 36.112-149.642 54.302-5.656 2.063-10.985 5.021-16.792 7.699-4.733 3.326-10.009 5.81-13.322 9.89-4.059 4.997-7.3 10.735-7.956 17.856-.38 4.129-.245 7.929.229 11.935.168 1.427-1.252 3.043-1.947 4.573-.63-1.56-1.262-3.121-2.16-4.865-.266-.933-.266-1.683.055-2.95.107-1.756-.107-2.994-.321-4.233v-4.583z"/>
  <path fill="#00FF00" d="M2004.094 780.467c-.042 9.196-.115 17.94-.08 27.146-1.32 25.618-7.68 49.215-23.998 68.938-13.72 16.584-30.287 30.42-49.9 39.224-24.503 10.998-49.64 20.694-74.875 29.941-223.928 82.059-447.922 163.94-671.943 245.745-32.132 11.733-64.268 23.554-96.847 33.937-34.544 11.01-69.272 10.741-102.859-4.494-14.122-6.406-25.365-17.059-36.35-27.743-26.264-25.547-46.647-55.569-64.371-87.352-22.501-40.348-43.554-81.51-66.373-121.672-63.32-111.443-127.291-222.515-190.853-333.82-11.65-20.402-23.554-40.477-38.977-58.43-7.056-8.213-15.45-9.669-24.494-8.114-8.412 1.446-16.503 4.945-24.628 7.84-37.858 13.496-75.68 27.09-113.512 40.66-20.515 7.36-41.123 7.422-61.685.434-11.608-3.945-21.373-11.035-29.053-20.42-12.249-14.966-19.941-32.575-22.836-51.402-3.5-22.759 6.072-41.986 21.567-58.232 13.582-14.241 30.395-23.885 48.625-30.582 54.87-20.158 109.81-40.143 164.998-59.405 21.324-7.443 43.586-10.505 66.41-7.81 29.021 3.428 52.607 16.364 69.699 40 9.138 12.635 16.597 26.472 25.335 39.416 3.552 5.261 7.98 10.21 12.896 14.215 11.02 8.976 23.762 6.555 35.679 2.752 24.992-7.976 49.726-16.778 74.478-25.489 62.04-21.833 124.03-43.805 186.415-65.286 3.199 7.165 5.207 14.395 8.977 20.545 27.544 44.928 67.103 72.746 119.148 82.32 27.12 4.988 53.957 3.328 80.378-4.28 29.531-8.504 57.24-20.396 79.452-42.748 14.587-14.678 26.343-31.239 35.898-49.808.314-.946.426-1.69.78-2.698 6.551-14.168 10.32-28.652 11.093-43.98.47-9.343 2.223-18.624 2.621-27.966.76-17.81-2.449-35.264-5.786-52.667 37.753-13.723 75.505-27.446 113.62-41.313 1.056.722 1.997 1.485 2.407 2.469 13.173 31.59 34.997 56.149 63.1 74.883 46.07 30.711 95.865 37.14 148.593 20.15 26.741-8.616 51.398-21.025 71.678-40.915 29.913-29.336 47.754-64.699 52.614-106.47 2.734-23.495-.23-46.454-6.141-69.561 23.277-4.568 46.214-4.55 69.055 2.886 32.275 10.507 50.31 33.658 59.985 64.87 6.25 20.16 8.365 40.993 10.914 61.809 3.113 25.427 6.926 50.77 10.476 76.143 4.496 32.135 9.118 64.253 13.527 96.4 5.224 38.087 10.055 76.23 15.46 114.29 7.93 55.845 16.635 111.583 24.147 167.482 3.013 22.411 3.738 45.13 5.536 68.162z"/>
  <path fill="#96CBE7" d="M1340.213 416.695c-9.353 18.367-21.109 34.928-35.696 49.606-22.213 22.352-49.92 34.244-79.452 42.748-26.421 7.608-53.258 9.268-80.378 4.28-52.045-9.574-91.604-37.392-119.148-82.32-3.77-6.15-5.778-13.38-8.609-20.484a1174.606 1174.606 0 0 0-6.609-22.134c-4.248-13.69-6.417-27.657-7.178-42.009-1.744-32.899 6.001-63.856 20.88-92.58 11.303-21.822 28.108-39.891 48.181-54.537 22.079-16.11 46.638-26.783 73.254-32.468 35.378-7.557 69.594-3.655 102.549 11.522 23.915 11.013 44.548 26.393 62.647 45.4 17.13 17.992 30.26 38.235 36.296 62.634.227.92.937 1.719 1.797 2.701 3.713 17.531 6.921 34.985 6.162 52.795-.398 9.342-2.15 18.623-2.621 27.965-.772 15.329-4.542 29.813-11.422 44.048-.599 1.165-.626 1.999-.653 2.833z"/>
  <path fill="#00FF00" d="M1612.95 1392.082c-56.882-19.378-94.564-57.936-114.832-113.495-14.848-40.704-12.18-81.497 3.38-121.47 18.169-46.682 53.178-76.705 98.145-95.958 25.978-11.122 53.452-15.484 81.585-12.074 58.222 7.057 105.017 33.695 136.414 84.008 9.837 15.764 14.186 34.31 18.278 52.505 7.467 33.202 6.379 66.212-4.033 98.582-6.546 20.35-18.45 37.904-32.28 54.045-18.992 22.164-41.991 38.51-69.775 48.175-18.42 6.407-36.743 12.674-56.448 13.733-20.54 1.104-40.482-1.885-60.435-8.051z"/>
  <path fill="#00FF00" d="M3.551 1247.411c.57-1.893 1.99-3.509 1.822-4.936-.474-4.006-.61-7.806-.229-11.935.657-7.12 3.897-12.86 7.956-17.856 3.313-4.08 8.59-6.564 13.704-9.807 5.728-1.799 10.769-3.487 15.762-5.305 53.12-19.343 106.218-38.741 159.348-58.051 35.785-13.006 71.632-25.844 107.418-38.847 61.101-22.202 122.164-44.512 183.268-66.708 43.446-15.782 86.94-31.432 130.39-47.201 3.48-1.263 6.792-2.993 10.182-4.506 9.769-2.915 19.254-1.565 28.105 2.906 6.842 3.456 13.063 8.011 15.718 15.87.846 2.505 1.706 5.021 2.8 7.423 4.848 10.649 2.478 20.698-2.383 30.565-3.628 7.364-9.579 12.585-16.66 17.615-4.546 1.63-8.504 2.9-12.408 4.316-96.548 35.042-193.087 70.11-289.636 105.152-98.426 35.722-196.887 71.347-295.248 107.249-9.41 3.435-18.567 4.915-28.143 2.08-9.323-2.76-18.147-6.29-23.08-15.803-1.073-2.07-4.019-3.17-6.102-4.717l-2.584-7.504zM233.537 914.757c-.207-.362-.414-.725-.37-1.51-2.344-8.082-5.512-15.605-7.371-23.44-1.716-7.228-.506-14.487 3.431-21.123 1.678-2.828 2.855-5.953 4.395-9.12.135-.179.396-.542.768-.54 4.373-1.902 9.612-2.168 10.684-7.933-.072-.084.08.075.44.102 1.405-.707 2.45-1.442 3.496-2.176.334-.157.668-.314 1.651-.31 3.349-.64 6.098-1.306 8.74-2.265 35.213-12.786 70.404-25.626 105.611-38.426 54.766-19.911 109.563-39.74 164.293-59.748 12.355-4.517 24.572-8.436 38.063-5.655 9.101 1.876 16.234 6.618 20.662 14.312 3.438 5.972 5.285 12.924 7.393 19.581 3.265 10.309.701 19.764-4.969 28.627-1.11 1.736-1.922 3.662-3.234 5.577-4.518 1.778-8.619 3.627-12.835 5.158a217207.083 217207.083 0 0 1-160.943 58.347c-47.084 17.054-94.176 34.084-141.255 51.152-3.51 1.273-6.94 2.767-10.724 4.215-.955.083-1.594.108-2.342-.208-6.311-3.141-12.513-5.941-18.819-9.067-2.324-2.067-4.544-3.809-6.765-5.55z"/>
  <path fill="#00FF00" d="M448.997 1416.944c-1.283.29-2.582.524-3.848.875-14.218 3.94-31.876-4.681-37.876-18.98a3014.55 3014.55 0 0 1-7.238-19.84c-3.995-10.038-.273-18.687 4.665-27.253 4.428-7.682 11.08-11.9 19.297-14.874 98.69-35.717 197.365-71.474 295.882-107.662 13.736-5.045 26.156-4.547 38.123 3.21 3.667 2.377 6.326 6.466 9.07 10.059 2.4 3.14 4.8 6.467 6.282 10.087 5.841 14.266 5.796 28.29-2.914 41.606-3.63 5.55-8.548 9.432-15.606 11.556-7.022 2.634-13.4 5.044-19.81 7.368-27.995 10.145-56.01 20.232-83.994 30.402-46.275 16.817-92.529 33.691-138.798 50.522-21.07 7.665-42.156 15.285-63.235 22.924m-4.552-85.205c-10.148 4.995-21.888 5.937-30.868 14.268-9.895 9.181-14.693 21.921-10.47 34.635 1.94 5.843 3.758 11.817 6.56 17.254 2.165 4.204 5.053 8.794 8.881 11.237 10.412 6.646 21.361 8.948 33.982 4.257 54.642-20.31 109.537-39.937 164.325-59.853 46.021-16.73 92-33.577 138.056-50.208 6.765-2.443 11.135-7.168 14.41-13.047 4.816-8.644 7.623-17.634 3.33-27.543a150.17 150.17 0 0 1-5.838-15.93c-1.815-5.962-6.379-9.386-11.085-12.485-10.618-6.992-21.961-7.701-33.896-3.358-92.199 33.554-184.427 67.027-277.387 100.773z"/>
  <path fill="#00FF00" d="M6.12 1255.285c2.098 1.177 5.044 2.277 6.117 4.347 4.933 9.513 13.757 13.044 23.08 15.803 9.576 2.835 18.732 1.355 28.143-2.08 98.36-35.902 196.822-71.527 295.248-107.249 96.549-35.041 193.088-70.11 289.636-105.152 3.904-1.417 7.862-2.687 12.188-4.06.41.166.426.37.471.879a2589.227 2589.227 0 0 1-52.903 19.884c-183.376 66.606-366.763 133.179-550.147 199.762-14.56 5.287-27.66 2.674-39.828-6.758-5.303-4.11-9.768-8.595-12.005-15.376z"/>
  <path fill="#00FF00" d="M261.78 929.525c3.467-1.391 6.897-2.885 10.407-4.158 47.079-17.068 94.171-34.098 141.255-51.152 53.653-19.434 107.305-38.87 160.943-58.347 4.216-1.531 8.317-3.38 12.974-5.033.503.048.777.302.737.548-.041.245.039.736.039.736-.443.215-.886.431-1.901.773-3.07 1.716-5.378 3.827-8.094 4.818-57.084 20.81-114.219 41.48-171.334 62.205-43.813 15.899-87.585 31.911-131.46 47.638-4.216 1.511-9.03 1.354-13.567 1.972z"/>
  <path fill="#00FF00" d="M587.722 810.758c.81-1.963 1.622-3.89 2.732-5.625 5.67-8.863 8.234-18.318 4.97-28.627-2.11-6.657-3.956-13.61-7.394-19.581-4.428-7.694-11.56-12.436-20.662-14.312-13.491-2.78-25.708 1.138-38.063 5.655-54.73 20.009-109.527 39.837-164.293 59.748-35.207 12.8-70.398 25.64-105.61 38.426-2.643.96-5.392 1.625-8.465 2.23 8.107-3.49 16.534-6.932 25.079-10.05 40.284-14.7 80.596-29.325 120.908-43.95 48.383-17.555 96.776-35.081 145.16-52.628 2.012-.73 3.99-1.548 6.715-2.322 3.906-.283 7.08-.569 10.256-.855a19.05 19.05 0 0 1 2.784-.137c2.565.4 4.425.703 6.284 1.007.718.08 1.436.16 2.62.54 1.02.499 1.573.696 2.126.893 1.242.45 2.485.9 4.072 1.884 1.591.988 2.84 1.443 4.088 1.898.488.578.976 1.155 1.68 2.266 2.103 2.082 3.987 3.629 5.872 5.176.402.998.804 1.996 1.36 3.612 3.12 8.41 6.085 16.203 9.05 23.995.135.704.269 1.407.37 2.87-.443 4.901-.855 9.042-1.267 13.183-.813 1.94-1.627 3.88-2.859 6.313-1.102 1.805-1.785 3.116-2.469 4.427 0 0-.305.273-.73.53-.832 1.132-1.24 2.01-1.648 2.886-.265.122-.491.295-1.133.67-.676.187-.898.222-1.119.257 0 0-.274-.254-.414-.379z"/>
  <path fill="#00FF00" d="M261.463 929.582c4.853-.675 9.667-.518 13.884-2.03 43.874-15.726 87.646-31.738 131.46-47.637 57.114-20.726 114.249-41.396 171.333-62.205 2.716-.99 5.023-3.102 7.903-4.662-1.956 2.19-3.933 5.259-6.694 6.358-11.58 4.61-23.402 8.614-35.124 12.873-66.265 24.08-132.523 48.18-198.792 72.25-23.601 8.572-47.172 17.231-70.869 25.531-9.654 3.382-19.374 3.06-28.197-2.655 4.505.493 8.684 1.402 12.864 2.31.638-.025 1.277-.05 2.232-.133z"/>
  <path fill="#00FF00" d="M449.232 1417.24c20.844-7.935 41.93-15.555 63-23.22 46.27-16.83 92.523-33.705 138.798-50.522 27.984-10.17 56-20.257 83.993-30.402 6.41-2.324 12.79-4.734 19.553-7.13-.815 1.114-1.803 2.783-3.218 3.313-16.966 6.353-33.987 12.559-51.01 18.76a120250.811 120250.811 0 0 1-119.483 43.483c-24.372 8.85-48.774 17.62-73.16 26.435-17.662 6.385-35.308 12.817-53 19.118-1.598.569-3.486.326-5.473.165z"/>
  <path fill="#00FF00" d="M233.486 859.741c-1.404 2.99-2.581 6.115-4.259 8.943-3.937 6.636-5.147 13.895-3.431 21.123 1.86 7.835 5.027 15.358 7.306 23.132-.47.22-.62.326-.97-.058-3.213-8.621-6.228-16.751-9.243-24.881-.084-.38-.169-.76-.184-1.852.576-8.588 2.68-16.004 6.461-22.937 0 0-.053-.101.318-.1 1.581-1.124 2.792-2.247 4.002-3.37z"/>
  <path fill="#00FF00" d="M599.283 779.724c-3.257-7.515-6.223-15.308-9.144-23.467 8.07 5.534 10.032 13.852 9.144 23.467z"/>
  <path fill="#00FF00" d="M222.67 888.217c3.234 7.913 6.249 16.043 9.213 24.545-7.037-4.814-8.452-12.583-9.615-20.434-.187-1.261.11-2.594.402-4.11z"/>
  <path fill="#00FF00" d="M259.121 929.374c-4.07-.567-8.249-1.476-12.824-2.316-.816-.285-1.237-.64-1.95-1.482-1.699-1.783-3.106-3.08-4.373-4.52.141-.144.433-.423.433-.423 6.201 2.8 12.403 5.6 18.714 8.741z"/>
  <path fill="#00FF00" d="M228.798 863.18c-3.413 6.964-5.517 14.38-6.172 22.688-.274-2.946-1.235-6.57-.327-9.642 1.35-4.564 4.022-8.736 6.5-13.045z"/>
  <path fill="#00FF00" d="M234.702 856.642c2.52-4.507 6.545-6.802 11.716-7.486-.248.875-.756 1.442-1.264 2.01 0 0-.152-.159-.435-.14-3.375 2.07-6.466 4.122-9.673 6.035l-.344-.42z"/>
  <path fill="#00FF00" d="M598.481 795.99c.025-4.077.437-8.218 1.012-12.785 3.115 4.149.141 8.368-1.012 12.784zM558.967 738.498c-3.087.655-6.262.941-9.805 1.08 2.719-2.699 6.023-3.58 9.805-1.08z"/>
  <path fill="#00FF00" d="M233.344 915.048c2.414 1.45 4.634 3.192 6.958 5.26.105.325-.187.604-.584.711-.564.148-.732.188-.9.229 0 0 .057-.077-.013-.405-1.807-1.609-3.543-2.889-5.28-4.17-.125-.445-.25-.89-.18-1.625z"/>
  <path fill="#00FF00" d="M233.622 859.563c-1.346 1.301-2.557 2.424-4.089 3.576 1.287-2.076 2.895-4.18 4.837-6.39.332-.107.561.172.495.522-.326.817-.587 1.284-.847 1.75 0 0-.261.364-.396.542z"/>
  <path fill="#00FF00" d="M588.686 752.033c-1.99-1.186-3.874-2.733-5.766-4.625a29.808 29.808 0 0 1 5.766 4.625zM568.051 739.398c-1.787.035-3.647-.268-5.877-.77 1.943-2.478 3.978-2.044 5.877.77z"/>
  <path fill="#00FF00" d="M233.417 917.028c1.845.926 3.581 2.206 5.34 3.823a23.599 23.599 0 0 1-5.34-3.823zM238.816 921.61c.17-.403.338-.443.761-.447a41.2 41.2 0 0 1 4.563 4.232c-3.056 1.002-4.518-.735-5.324-3.785z"/>
  <path fill="#00FF00" d="M593.16 806.827c.29-1.344.973-2.655 1.915-4.142a13.072 13.072 0 0 1-1.914 4.142zM580.998 744.599c-1.217-.102-2.466-.557-3.78-1.357 1.206.105 2.478.555 3.78 1.357z"/>
  <path fill="#00FF00" d="M245.514 851.193c.148-.595.656-1.162 1.287-2.003.605-.36 1.086-.447 1.889-.354-.725.915-1.77 1.65-3.176 2.357z"/>
  <path fill="#00FF00" d="M590.755 810.18c.041-.847.449-1.724 1.166-2.687-.06.827-.43 1.742-1.166 2.687zM572.894 740.864c-.578.109-1.131-.088-1.79-.572.535-.103 1.175.082 1.79.572z"/>
  <path fill="#00FF00" d="M632.766 982.147c-2.984 1.625-6.296 3.355-9.776 4.618-43.45 15.769-86.944 31.42-130.39 47.2-61.104 22.197-122.167 44.507-183.268 66.71-35.786 13.002-71.633 25.84-107.418 38.846-53.13 19.31-106.229 38.708-159.348 58.051a321.516 321.516 0 0 1-15.435 5.171c5.098-2.627 10.427-5.585 16.083-7.648 49.848-18.19 99.76-36.204 149.642-54.302a287631.063 287631.063 0 0 0 156.66-56.901c46.881-17.04 93.75-34.11 140.632-51.146 45.149-16.406 90.303-32.797 135.473-49.143 2.154-.78 4.488-1.057 7.145-1.456z"/>
  <path fill="#00FF00" d="M234.39 859.024c-.112-.47.149-.936.59-1.613 3.273-2.263 6.364-4.315 9.81-6.302-.788 5.747-6.027 6.013-10.4 7.915z"/>
  <path fill="#00FF00" d="M444.815 1331.615c92.59-33.622 184.818-67.095 277.017-100.649 11.935-4.343 23.278-3.634 33.896 3.358 4.706 3.099 9.27 6.523 11.085 12.485a150.17 150.17 0 0 0 5.838 15.93c4.293 9.91 1.486 18.9-3.33 27.543-3.275 5.879-7.645 10.604-14.41 13.047-46.057 16.63-92.035 33.479-138.056 50.208-54.788 19.916-109.683 39.543-164.325 59.853-12.62 4.69-23.57 2.389-33.982-4.257-3.828-2.443-6.716-7.033-8.882-11.237-2.8-5.437-4.619-11.41-6.56-17.254-4.222-12.714.576-25.454 10.471-34.635 8.98-8.331 20.72-9.273 31.238-14.392z"/>
</svg>
