<svg xmlns="http://www.w3.org/2000/svg" viewBox="55 88 395 324">
  <path fill="#00FF00" d="M88 95h3a2807 2807 0 0 1 20 0h3c11 0 21 0 30 9 5 6 6 12 7 19l4 8 10 1h2l7 1h54v2l1 2v3a40 40 0 0 0 21 27l2 1c10 5 23 5 33 1 4-1 8-4 11-7l4-1a464 464 0 0 1 5-9c4-6 5-11 6-19h31l2 9c3 11 10 19 20 25l2 1c6 3 11 3 18 3h2a40 40 0 0 0 39-38c9 2 15 4 21 11 5 7 4 16 2 24l-2 8-3 15a655 655 0 0 1-11 54l-1 3a2696 2696 0 0 0-3 16l-8 31v3c-3 7-6 15-14 19-7 4-14 5-22 5h-19a5876 5876 0 0 1-66 0h-4a8443 8443 0 0 0-107 1c-14 0-25-1-35-11-12-16-13-41-17-61l-6-35a2759 2759 0 0 1-5-32l-2-7a3600 3600 0 0 1-1-10l-2-10v-3l-5-17c-3-2-4-2-7-2H97a1182 1182 0 0 0-18 0h-3c-6 0-10-2-15-6-5-6-5-10-5-18 0-5 3-8 6-11 8-5 17-5 26-5Z"/>
  <path fill="#96CBE7" d="M290 93c11 7 18 17 22 29 2 12-2 24-8 34-6 8-15 14-25 16a43 43 0 0 1-51-34 89 89 0 0 1 0-7v-2c0-12 5-22 14-31l6-4 3-1c11-6 27-6 39 0ZM383 89h3c11 0 20 5 29 12a43 43 0 0 1-1 60c-9 8-18 12-30 11h-3c-11 0-21-5-29-13-7-9-11-17-10-28v-2c0-9 2-17 8-24l1-2c8-10 20-15 32-14Z"/>
  <path fill="#00FF00" d="m326 332 2 1 3 2c9 7 16 16 18 27 1 13-1 24-10 35a42 42 0 0 1-32 14h-3c-11 0-18-4-27-11-9-11-13-21-12-35 1-11 6-20 14-28 14-10 32-13 47-5ZM212 332l2 1 3 2 3 2 2 1c7 7 12 18 13 28 1 13-4 24-12 34-11 9-22 12-35 11-5 0-8-1-12-3l-2-1c-11-6-16-13-21-24l-1-3c-3-9-1-21 3-30 11-20 36-29 57-18Z"/>
</svg>
