<svg xmlns="http://www.w3.org/2000/svg" viewBox="0 0 3000 1962">
  <path fill="#00FF00" d="M939 140h17a20380 20380 0 0 1 173 1h3l16 2 5 1c35 3 68 17 95 40l2 2c6 5 11 10 15 16l2 2c15 20 22 46 27 71l2 11 2 10c2 16 5 29 16 40l3 3c17 15 47 12 68 13h93a35101 35101 0 0 1 184 2h3l62 1v15a146 146 0 0 0 8 43 71 71 0 0 0 5 13l3 7 7 15 2 3 14 23 2 3c29 42 70 72 118 87l7 3a212 212 0 0 0 84 9c22 0 22 0 43-3h3l14-4 6-2c18-4 37-15 53-25l2-1a212 212 0 0 0 42-36 109 109 0 0 1 3-3c16-16 26-37 35-57l1-2c11-23 20-51 22-76l2-12h167l1 16 1 10 1 2a251 251 0 0 0 3 17v2l4 12 2 7c2 7 6 13 9 20l1 2c18 37 41 67 74 91l3 2c13 10 29 19 44 24l6 2c23 10 47 14 71 14h4a3309 3309 0 0 0 19 0c20 0 39-1 59-7a22380 22380 0 0 1 7-2l7-2 3-1c33-10 62-31 87-55l2-2c6-5 10-11 15-17a291 291 0 0 1 4-5c11-14 19-29 26-45a248 248 0 0 1 2-5c6-11 9-22 11-34a565 565 0 0 1 2-6l6-39c5 0 8 0 13 2h2l4 1a755 755 0 0 0 6 2l28 10 2 1c16 7 30 18 43 30l3 3c13 13 22 27 27 45l1 2c14 45-1 98-12 142a1252 1252 0 0 0-7 25l-10 55a2608 2608 0 0 1-9 44l-1 4a1663 1663 0 0 1-26 119 408 408 0 0 1-4 18 455 455 0 0 0-7 34l-1 2-4 19-4 18-1 4a535 535 0 0 0-3 18l-5 21-3 19-5 23v2a7267 7267 0 0 1-8 41l-3 15-2 9a6079 6079 0 0 0-4 21 11013 11013 0 0 1-17 76 371 371 0 0 0-4 15l-7 28-4 16-3 11-4 11-1 3a736 736 0 0 0-3 13c-6 19-13 38-23 56l-1 2c-17 32-44 55-78 68a168 168 0 0 0-6 3c-41 17-87 15-130 15a8072 8072 0 0 0-101 0l-2 1h-13a126095 126095 0 0 1-175 0h-2a429795 429795 0 0 0-66 0h-20a98841 98841 0 0 1-110 0h-2l-147 1a91889 91889 0 0 1-27 0 16210 16210 0 0 1-216 0h-8a89090 89090 0 0 0-198 0c-60 0-119-6-167-47l-3-3c-39-34-59-96-69-145l-3-11c-5-16-7-32-10-49l-1-6-2-14a3097 3097 0 0 0-3-17l-6-43c-2-22-6-45-10-67a635 635 0 0 1-2-15 659 659 0 0 0-11-67l-3-19-4-20-5-28-6-32-5-32-3-14v-3a7392 7392 0 0 1-3-18l-1-2-2-8-1-8-1-3a123 123 0 0 1 0-5l-3-13-1-10-4-19a970 970 0 0 1-9-51 81 81 0 0 0-1-8l-3-18a424 424 0 0 0-6-38 325 325 0 0 0-6-34l-2-10-2-8a2750 2750 0 0 1-3-20l-1-6-1-10-2-7a225 225 0 0 1-1-7 379 379 0 0 0-22-95c-3-13-3-13-12-21l-3-1-2-1a106 106 0 0 0-7-3l-2-1-11-1h-30a6715 6715 0 0 1-20 0 28237 28237 0 0 0-89 0h-17c-44 0-84-3-118-35l-2-2-2-2a83 83 0 0 1-21-40l-1-5-2-11-1-9v-10a1410 1410 0 0 1 0-11v-7l1-7 1-5c3-22 20-43 38-56 42-27 92-26 141-26Z"/>
  <path fill="#97CEEB" d="M1966 103h3c17 0 33 1 50 5h3c37 9 69 26 96 51a281 281 0 0 0 5 3c37 33 64 81 77 129l1 2a164 164 0 0 1 3 48c0 8 0 16-2 23v8l-4 20-1 3c-3 10-5 19-9 28l-1 2a232 232 0 0 1-50 85c-2 4-5 6-9 9l-8 6c-28 25-64 42-100 49l-3 1c-15 3-31 2-47 2h-3c-18 0-35-1-53-4a941 941 0 0 0-5-1l-18-5a112 112 0 0 0-7-2 216 216 0 0 1-123-97l-2-3c-8-12-15-25-20-39l-1-3c-3-7-5-12-6-19l-1-1a102 102 0 0 1-1-5v-2l-1-4-1-2c-2-10-1-21-1-31v-10c0-19 0-38 4-56l1-3c4-22 12-42 22-61l1-2c8-15 17-28 28-41l1-2 18-19 2-2c20-20 47-36 73-45l2-1c28-10 57-14 87-14Zm646 2h2c28 0 55 4 81 14l2 1c17 6 34 16 49 27l3 2c17 12 33 25 46 42l1 2a242 242 0 0 1 19 28l1 2c6 11 11 22 15 34a299 299 0 0 0 2 6l7 25 1 4a209 209 0 0 1 4 52 556 556 0 0 1 0 5l1 7h-2v3c-2 33-11 65-26 94l-1 2a183 183 0 0 1-19 29l-23 27-2 2-16 14-2 2c-17 13-36 24-56 32l-4 2a181 181 0 0 1-40 11c-15 4-30 3-45 3h-12c-12 0-24 0-36-2h-3c-8-1-15-3-23-6l-3-1c-19-6-36-13-52-23l-3-2a209 209 0 0 1-39-30c-10-9-19-20-26-32l-3-4c-9-14-17-29-24-45l-1-3c-3-5-4-11-6-17a170 170 0 0 0-2-6l-3-11-1-2a185 185 0 0 1-3-54c0-38 7-75 25-108l2-3a268 268 0 0 1 46-62l3-1v-2l5-4 3-3 3-2 2-2c7-6 14-10 22-15a382 382 0 0 0 4-2c28-18 62-26 94-29h3l30-1Z"/>
  <path fill="#00FF00" d="M2174 1450h9a146 146 0 0 1 34 3 240 240 0 0 1 25 6l2 1c20 6 38 15 56 25l2 1c9 5 16 11 24 18l2 2a256 256 0 0 1 42 45 187 187 0 0 1 42 124c0 16 0 31-3 47v3l-1 6a813 813 0 0 0-2 8c-2 10-4 20-8 29l-3 8c-6 16-13 32-23 46l-2 3c-26 40-68 71-113 86l-2 1c-21 7-43 11-65 11h-4c-41 1-78-2-115-21l-4-2c-16-8-31-19-45-30l-3-2c-11-9-20-19-28-30l-1-2c-27-37-44-75-51-120l-1-3v-19a3186 3186 0 0 1 2-49l1-5c6-40 25-76 51-107l2-2c15-19 32-34 53-46l2-1c24-14 49-24 77-30h2c15-4 30-4 46-4Zm-644 0h10a159 159 0 0 1 58 8c20 6 38 15 56 26a347 347 0 0 0 7 3l19 14a689 689 0 0 0 6 4c13 10 24 21 34 34l1 2c17 21 29 45 38 70l1 2c16 50 13 105-5 154l-1 2c-10 28-26 53-44 76l-2 3c-32 40-87 62-135 71l-2 1a275 275 0 0 1-67 3h-2c-23 0-44-7-64-17l-4-2c-25-13-48-29-69-49l-3-2c-10-11-19-23-27-35a427 427 0 0 0-3-5c-13-20-23-42-32-64l-1-3a115 115 0 0 1-6-50 1328 1328 0 0 1 0-17c1-31 10-61 21-89l1-3c7-17 18-31 29-45l1-2c12-14 25-28 40-39a323 323 0 0 0 6-4c13-10 28-19 43-26l2-1a245 245 0 0 1 41-14l3-1a288 288 0 0 1 9-2l4-1c12-2 24-2 37-2ZM88 838h39a31091 31091 0 0 1 125 0 322071 322071 0 0 0 66 0h4a538344 538344 0 0 1 127 0h135a392926 392926 0 0 1 153 0h4a127084 127084 0 0 0 205 0c16 0 31 4 43 14 11 11 16 22 16 37 0 18-2 31-15 44h-2v2c-7 6-15 10-24 13l-3 1h-45a30204 30204 0 0 1-137 0h-37a506569 506569 0 0 1-134 0H453a196959 196959 0 0 1-151 0h-3a64232 64232 0 0 0-190 1 1496 1496 0 0 1-13-1l-4 1c-9 0-16-1-24-5l-3-1c-14-8-23-20-28-35l-2-5-1-2c-1-18 3-33 15-47 10-11 24-17 39-17ZM546 494a4971 4971 0 0 1 20 0h16a20183 20183 0 0 1 57 0h11a98127 98127 0 0 1 298 0c12 0 23 0 33 6l3 2c11 8 17 15 20 28l1 21v4c0 10 0 20-6 28l-1 2a126 126 0 0 1-5 6l-1 2c-6 6-16 11-24 13H854a133962 133962 0 0 1-67 0h-14a59739 59739 0 0 0-242 1c-16 0-28-3-40-14a57 57 0 0 1-13-40v-6c0-15 3-27 13-38 16-15 35-15 55-15ZM522 1197h16a9870 9870 0 0 1 72 0h11a115786 115786 0 0 1 87 0h2a40936 40936 0 0 0 242-1c14 0 27 3 38 13 11 11 16 22 16 37v11c0 14-4 25-13 36-6 5-13 10-21 12l-3 1-12 1h-47a22949 22949 0 0 1-58 0 95611 95611 0 0 1-80 0 46919 46919 0 0 0-239 1c-18 0-30-4-43-16-8-9-12-19-12-31v-2a730 730 0 0 1 0-12 46 46 0 0 1 45-50Z"/>
</svg>
