<svg xmlns="http://www.w3.org/2000/svg" viewBox="16 24 1612 1466" xml:space="preserve">
  <path fill="#00FF00" d="M1490.004 164.828c30.7-2.764 59.332 2.81 84.854 20.993 13.415 9.558 21.497 22.966 27.145 38.007 7.119 18.958 9.76 38.878 9.464 58.875-.733 49.556 3.682 98.894 5.125 148.349.996 34.147 1.208 68.32 2.507 102.454 1.826 47.949 4.365 95.87 6.544 143.806 1.892 41.633 3.038 83.291.538 124.922-1.006 16.735-2.347 33.628-5.705 50.005-6.121 29.855-23.503 52.24-49.165 68.703-21.79 13.978-45.799 21.77-70.586 28.005-195.62 49.204-391.214 98.51-586.825 147.747-64.826 16.318-129.647 32.655-194.537 48.717-21.058 5.213-42.407 8.7-64.287 6.733-32.732-2.942-60.308-15.59-82.105-40.978-24.029-27.986-42.165-59.461-56.74-92.996-16.167-37.2-30.529-75.185-46.802-112.336-45.633-104.18-91.853-208.104-137.823-312.136-10.552-23.878-20.436-48.076-31.78-71.569-6.257-12.956-14.156-25.32-22.786-36.849-4.677-6.248-13.626-7.159-21.195-5.593-18.23 3.77-36.287 8.387-54.39 12.761-28.933 6.992-57.66 15.002-86.824 20.827-26.832 5.36-51.887-.19-71.83-20.278-5.72-5.763-10.858-13.002-13.695-20.533-4.769-12.658-9.443-25.919-10.62-39.238-1.993-22.555 9.514-40.27 26.107-54.573 16.94-14.601 37.513-22.016 58.755-27.378 49.5-12.493 99.058-24.776 148.714-36.631 22.306-5.326 44.96-7.461 67.864-3.177 33.336 6.236 57.105 24.985 72.295 54.938 5.563 10.969 10.874 22.084 15.816 33.344 3.835 8.738 10.134 15.412 18.468 18.765 5.993 2.41 13.564 2.82 20.037 1.744 16.708-2.778 33.269-6.568 49.76-10.495 70.7-16.834 141.352-33.863 212.02-50.822 1.294-.31 2.583-.634 4.404-.633 2.616 7.147 3.953 14.32 6.912 20.746 18.696 40.603 49.552 68.778 90.49 85.823 20.305 8.454 41.928 11.9 63.899 11.729 22.106-.172 43.563-4.618 64.576-11.486 39.116-12.784 67.236-38.658 87.476-73.647 14.547-25.148 18.618-53.156 19.907-81.587.526-11.59-.615-23.255-.998-34.885 37.706-9.379 75.412-18.757 113.828-28.034 1.523 2.275 2.416 4.422 3.137 6.625 11.774 35.97 34.744 64.085 65.362 84.738 35.071 23.659 74.673 32.763 117.104 25.686 42.326-7.06 79.357-23.994 107.716-57.47 25.956-30.638 39.735-65.894 40.536-105.94.238-11.903-1.717-23.85-2.667-35.778z"/>
  <path fill="#97CCE8" d="M1044.712 274.735c.659 11.897 1.8 23.562 1.274 35.15-1.29 28.432-5.36 56.44-19.907 81.588-20.24 34.99-48.36 60.863-87.476 73.647-21.013 6.868-42.47 11.314-64.576 11.486-21.971.17-43.594-3.275-63.898-11.729-40.939-17.045-71.795-45.22-90.49-85.823-2.96-6.426-4.297-13.599-6.517-20.787-2.19-10.602-4.46-20.807-6.255-31.094-3.33-19.084-2.037-38.057 2.082-56.893 5.143-23.52 13.828-45.838 28.184-65.027 26.569-35.514 62.251-57.59 105.91-66.111 10.552-2.06 21.344-3.481 32.077-3.91 30.075-1.2 57.877 7.005 83.662 22.21 32.548 19.192 57.502 45.857 74.266 79.516 5.744 11.533 7.702 24.953 11.664 37.777zM1490.009 164.434c.945 12.321 2.9 24.269 2.662 36.172-.8 40.046-14.58 75.302-40.536 105.94-28.36 33.476-65.39 50.41-107.716 57.47-42.43 7.077-82.033-2.027-117.104-25.686-30.618-20.653-53.588-48.767-65.362-84.738-.721-2.203-1.614-4.35-2.748-6.734-1.616-6.862-2.78-13.543-4.227-20.161-7.505-34.322-2.732-67.089 10.697-99.352 20.428-49.082 56.965-78.988 107.237-93.569 18.921-5.488 37.974-9.62 57.87-8.82 22.408.902 43.493 6.822 64.07 15.4 17.305 7.214 32.708 17.203 45.992 30.28 15.684 15.436 28.666 33.046 36.84 53.53 5.14 12.881 8.288 26.556 12.325 40.268z"/>
  <path fill="#00FF00" d="M1330.916 1054.09c26.347 14.081 49.055 31.808 66.686 55.863 13.497 18.415 19.449 39.405 23.569 61.327 7.05 37.51 3.891 73.999-11.268 109.053-8.442 19.52-22.207 35.443-37.47 50.053-23.44 22.437-51.828 34.445-83.136 41.794-39.591 9.292-76.68 3.209-112.392-14.44-23.47-11.6-41.865-29.587-57.396-50.203-26.15-34.711-38.61-74.151-34.143-117.526 6.403-62.162 37.768-108.044 94.155-135.854 35.158-17.34 72.19-22.673 110.693-14.155 13.917 3.079 27.889 6.466 40.702 14.087zM939.7 1425.695c-34.056 38.176-77.17 57.385-126.952 62.97-16.264 1.824-31.674-2.978-47.123-7.057-39.237-10.358-69.024-33.937-95.022-64.478-24.393-28.656-31.675-61.677-32.418-97.668-1.609-77.867 55.07-142.548 115.786-163.031 35.255-11.894 70.422-11.769 105.968-.872 54.487 16.704 91.057 52.627 109.74 105.446 13.054 36.906 11.158 75.05-1.235 112.393-6.333 19.085-14.06 37.399-28.743 52.297z"/>
</svg>
